HIERARCHY
ROOT Hips
{
	OFFSET 0.00000 0.00000 0.00000
	CHANNELS 6 Xposition Yposition Zposition Yrotation Zrotation Xrotation 
	JOINT Lumbar
	{
		OFFSET 0 0 0
		CHANNELS 3 Zrotation Xrotation Yrotation
		JOINT Neck
		{
			OFFSET 0.00 0.2701 0.00
			CHANNELS 3 Zrotation Xrotation Yrotation
			End Site
			{
				OFFSET 0.00 0.1379 0.00
			}
		}
		JOINT RightShoulder
		{
			OFFSET 0.0119 0.2289 0.1181
			CHANNELS 3 Zrotation Xrotation Yrotation
			JOINT RightElbow
			{
				OFFSET 0.00 -0.1475 0.00
				CHANNELS 2 Zrotation Yrotation
				JOINT RightWrist
				{
					OFFSET 0.00 -0.1605 0.00
					CHANNELS 2 Zrotation Xrotation
					End Site
					{
						OFFSET 0.0040 -0.1068 0.0006
					}
				}
			}
		}
		JOINT LeftShoulder
		{
			OFFSET 0.0119 0.2289 -0.1181
			CHANNELS 3 Zrotation Xrotation Yrotation
			JOINT LeftElbow
			{
				OFFSET 0.00 -0.1475 0.00
				CHANNELS 2 Zrotation Yrotation
				JOINT LeftWrist
				{
					OFFSET 0.00 -0.1605 0.00
					CHANNELS 2 Zrotation Xrotation
					End Site
					{
						OFFSET 0.0040 -0.1068 -0.0006
					}
				}
			}
		}
	}
	JOINT RightHip
	{
		OFFSET 0.0316 -0.0424 0.0458
		CHANNELS 3 Zrotation Xrotation Yrotation
		JOINT RightKnee
		{
			OFFSET 0.00 -0.2438 0.00
			CHANNELS 1 Zrotation
			JOINT RightAnkle
			{
				OFFSET 0.00 -0.2449 0.00
				CHANNELS 3 Zrotation Xrotation Yrotation
				End Site
				{
					OFFSET 0.1237 -0.0542 0.0051
				}
			}
		}
	}
	JOINT LeftHip
	{
		OFFSET 0.0316 -0.0424 -0.0458
		CHANNELS 3 Zrotation Xrotation Yrotation
		JOINT LeftKnee
		{
			OFFSET 0.00 -0.2438 0.00
			CHANNELS 1 Zrotation
			JOINT LeftAnkle
			{
				OFFSET 0.00 -0.2449 0.00
				CHANNELS 3 Zrotation Xrotation Yrotation
				End Site
				{
					OFFSET 0.1237 -0.0542 -0.0051
				}
			}
		}
	}
}
MOTION
Frames: 25
Frame Time: 0.02
0.26729 -0.1574 -0.02094 -174.46811 -30.82939 -0.25212 36.6634 2.41325 -3.87698 7.17892 -8.93173 -0.83065 43.10904 -2.25505 13.72317 128.43713 99.31535 9.38262 1.59158 44.07178 1.26114 -7.00634 133.66592 -97.57554 6.78014 -2.15566 108.20939 -9.30212 -8.59722 -101.1 -10.50218 -1.74659 -1.66667 110.06197 6.19744 3.44762 -101.71677 -12.59026 2.17846 1.99871
0.26739 -0.1576 -0.02106 -174.47721 -30.68739 -0.29234 36.68235 2.36243 -3.78452 7.19019 -8.81432 -0.83065 42.79558 -1.88639 13.77944 128.51 99.40662 9.54626 1.98944 43.94085 1.23269 -7.08047 133.69243 -97.68125 6.82982 -2.13701 108.02807 -9.25482 -8.70734 -101.09409 -10.46412 -1.77239 -1.6835 109.96489 6.16969 3.35739 -101.74661 -12.5935 2.17612 1.99697
0.26744 -0.15775 -0.02125 -174.51286 -30.55194 -0.35612 36.74107 2.3001 -3.70243 7.11825 -8.59303 -0.83065 42.57737 -1.48033 13.85585 128.52831 99.55486 9.79469 2.58537 44.04232 1.44424 -7.17773 133.59249 -98.09436 6.96734 -2.21375 107.83265 -9.17997 -8.8421 -101.07565 -10.42384 -1.79981 -1.70193 109.87474 6.15174 3.22597 -101.77936 -12.5973 2.17277 1.99432
0.26751 -0.15792 -0.02141 -174.53776 -30.4172 -0.41011 36.78594 2.24362 -3.61612 7.08593 -8.41453 -0.83065 42.32626 -1.10346 13.92156 128.56938 99.6719 9.99306 3.06489 44.05203 1.55007 -7.2621 133.54492 -98.35387 7.05767 -2.25305 107.64824 -9.12067 -8.96376 -101.06205 -10.38563 -1.82514 -1.71862 109.78505 6.13072 3.11415 -101.80968 -12.60062 2.17004 1.9922
0.26758 -0.15811 -0.02159 -174.55728 -30.26649 -0.46036 36.81201 2.18349 -3.52707 7.0472 -8.25177 -0.83065 42.02189 -0.67565 13.99323 128.62162 99.81037 10.24165 3.64902 43.99513 1.64159 -7.35881 133.52156 -98.6638 7.17795 -2.26478 107.44343 -9.04911 -9.09466 -101.05201 -10.34251 -1.85638 -1.73965 109.67948 6.10421 2.99906 -101.84476 -12.60442 2.16685 1.98971
0.26765 -0.15824 -0.02174 -174.59404 -30.15132 -0.52408 36.88783 2.12848 -3.44688 7.00095 -8.0321 -0.83065 41.85167 -0.34439 14.05569 128.63737 99.91665 10.40623 4.0646 44.1321 1.81779 -7.43491 133.41698 -98.94463 7.25822 -2.35491 107.27903 -8.99577 -9.21125 -101.03208 -10.30916 -1.87565 -1.75203 109.60984 6.09101 2.88039 -101.87106 -12.60764 2.16425 1.9877
0.26778 -0.1582 -0.0218 -174.67437 -30.1253 -0.61764 37.0811 2.09229 -3.38341 6.96234 -7.68795 -0.83065 42.06593 -0.29496 14.10937 128.55675 99.93875 10.30529 3.97079 44.78663 2.19637 -7.44219 133.11598 -99.07441 7.1917 -2.67237 107.21814 -9.00643 -9.288 -100.98175 -10.30465 -1.86124 -1.73975 109.6256 6.11619 2.76722 -101.86659 -12.60783 2.16396 1.98743
0.26791 -0.15809 -0.02184 -174.77067 -30.13593 -0.72419 37.32461 2.06147 -3.32956 6.91752 -7.28939 -0.83065 42.40665 -0.34295 14.14903 128.44253 99.92384 10.11898 3.70105 45.62241 2.64734 -7.42852 132.73799 -99.16546 7.08469 -3.06043 107.20023 -9.03514 -9.34843 -100.92293 -10.30988 -1.83478 -1.71879 109.67915 6.15383 2.6509 -101.85412 -12.60764 2.16415 1.9876
0.26803 -0.15802 -0.02188 -174.85803 -30.13489 -0.82583 37.55224 2.02717 -3.27464 6.8701 -6.91135 -0.83065 42.667 -0.34224 14.18186 128.34897 99.91344 9.97964 3.50946 46.35148 3.04749 -7.42833 132.39653 -99.27153 7.00572 -3.39385 107.17058 -9.05098 -9.41236 -100.87196 -10.30986 -1.81394 -1.70204 109.72377 6.18299 2.53247 -101.8491 -12.60861 2.16389 1.98748
0.26818 -0.15791 -0.02194 -174.95341 -30.11399 -0.92416 37.75337 1.99687 -3.20583 6.84242 -6.5469 -0.83065 43.02764 -0.35853 14.27277 128.23052 99.95508 9.80843 3.33077 47.19199 3.53103 -7.41296 132.0432 -99.39587 6.88867 -3.82341 107.10879 -9.08538 -9.49332 -100.80379 -10.31322 -1.79245 -1.68415 109.7353 6.22385 2.42742 -101.82832 -12.6057 2.16476 1.98785
0.26828 -0.15787 -0.02197 -175.03553 -30.14188 -1.03208 38.01926 1.95963 -3.16848 6.77354 -6.14319 -0.83065 43.20759 -0.36354 14.23698 128.15701 99.88117 9.6827 3.08273 47.83947 3.85572 -7.42307 131.69923 -99.47299 6.84075 -4.07116 107.12277 -9.08598 -9.53512 -100.76951 -10.3119 -1.76959 -1.66665 109.8228 6.24384 2.29444 -101.83816 -12.61042 2.16316 1.98716
0.26824 -0.15802 -0.02198 -175.07695 -30.3058 -1.16389 38.46709 1.90238 -3.21229 6.59002 -5.64017 -0.83065 42.86366 -0.31006 13.87391 128.21256 99.47681 9.69836 2.66975 47.91766 3.71691 -7.51581 131.38942 -99.39264 6.9878 -3.77436 107.349 -8.98727 -9.46819 -100.8315 -10.29516 -1.74442 -1.65157 110.12649 6.19717 2.08451 -101.93644 -12.63953 2.15702 1.9847
0.26814 -0.15823 -0.02198 -175.10436 -30.51566 -1.30463 38.97516 1.83799 -3.28797 6.36615 -5.10109 -0.83065 42.33247 -0.24318 13.38073 128.31525 98.96108 9.76302 2.19518 47.79299 3.41628 -7.63342 131.09427 -99.27068 7.20606 -3.29628 107.64758 -8.85442 -9.36316 -100.92768 -10.27343 -1.71855 -1.63732 110.5024 6.13009 1.84714 -102.0653 -12.67578 2.14802 1.98097
0.26806 -0.15843 -0.02198 -175.13814 -30.69762 -1.44086 39.44547 1.77652 -3.35126 6.16266 -4.5815 -0.83065 41.882 -0.18433 12.9337 128.39893 98.50936 9.80846 1.75859 47.75436 3.19275 -7.73486 130.79997 -99.1912 7.3956 -2.91746 107.90417 -8.73824 -9.27849 -101.00804 -10.25404 -1.69398 -1.62323 110.83492 6.07627 1.62263 -102.17905 -12.70657 2.13867 1.97694
0.268 -0.1586 -0.02198 -175.1725 -30.91026 -1.57965 39.96187 1.71633 -3.40618 5.95004 -4.04585 -0.83065 41.45245 -0.11873 12.53857 128.47177 97.99944 9.83907 1.27368 47.74694 2.95528 -7.85627 130.47126 -99.01413 7.57008 -2.47045 108.20057 -8.61747 -9.18044 -101.08991 -10.2346 -1.66489 -1.60661 111.21329 6.00624 1.39535 -102.29818 -12.74644 2.13599 1.97648
0.26789 -0.15882 -0.02198 -175.2021 -31.06975 -1.71481 40.39532 1.65204 -3.48579 5.74721 -3.53706 -0.83065 40.93576 -0.06518 12.00766 128.57813 97.58527 9.91212 0.8772 47.62547 2.70946 -7.94211 130.21864 -99.02704 7.79126 -2.12082 108.43086 -8.49836 -9.10136 -101.17611 -10.21408 -1.64513 -1.59552 111.51294 5.96474 1.16861 -102.41281 -12.76941 2.11914 1.96847
0.26763 -0.15917 -0.02199 -175.22204 -31.06796 -1.8399 40.58942 1.57547 -3.62727 5.57928 -3.10126 -0.83065 40.20136 -0.02638 11.10797 128.77173 97.45824 10.10103 0.73919 47.22419 2.46174 -7.92504 130.17402 -99.60765 8.14209 -2.08964 108.45911 -8.38833 -9.08459 -101.27257 -10.19046 -1.65212 -1.6 111.57587 6.00894 0.93928 -102.51317 -12.74124 2.06014 1.93818
0.26732 -0.15956 -0.022 -175.23759 -31.01141 -1.96052 40.69676 1.49554 -3.79209 5.42299 -2.69601 -0.83065 39.3894 -0.00337 10.08129 128.99646 97.43227 10.32953 0.69324 46.71689 2.214 -7.87122 130.20559 -100.37488 8.53437 -2.16135 108.41838 -8.2818 -9.08821 -101.37108 -10.16612 -1.66843 -1.60996 111.55706 6.08216 0.71331 -102.60694 -12.69627 1.98761 1.90064
0.26704 -0.15991 -0.022 -175.25504 -30.98205 -2.08177 40.8408 1.41888 -3.94526 5.26273 -2.28349 -0.83065 38.62722 0.0126 9.12931 129.20303 97.36339 10.53319 0.6066 46.26674 1.97826 -7.83329 130.20176 -101.03523 8.89587 -2.18216 108.41031 -8.17609 -9.08218 -101.46426 -10.14291 -1.67999 -1.61711 111.57676 6.14076 0.49307 -102.70003 -12.66089 1.92378 1.86762
0.2667 -0.16033 -0.02203 -175.27242 -30.94504 -2.20944 40.99896 1.33452 -4.10423 5.09552 -1.8413 -0.83065 37.79695 0.08748 8.09987 129.42813 97.27859 10.76691 0.51311 45.77184 1.68729 -7.79933 130.20174 -101.78731 9.30985 -2.21421 108.39961 -8.05894 -9.07637 -101.57693 -10.11614 -1.69369 -1.62566 111.59386 6.20467 0.24188 -102.80962 -12.61779 1.84928 1.82949
0.26649 -0.16063 -0.022 -175.28907 -30.9098 -2.32231 41.10574 1.2656 -4.25591 4.94604 -1.46921 -0.83066 37.09285 0.03763 7.20478 129.62148 97.25148 10.94742 0.45627 45.34747 1.5122 -7.74846 130.21161 -102.39318 9.62393 -2.24961 108.37665 -7.967 -9.07553 -101.64939 -10.09668 -1.70516 -1.63257 111.59526 6.26475 0.05548 -102.883 -12.58633 1.79354 1.80014
0.26664 -0.16059 -0.02182 -175.3049 -30.89734 -2.39737 41.0966 1.23914 -4.38431 4.84302 -1.27884 -0.83066 36.75408 -0.36855 6.70008 129.71869 97.36739 10.96568 0.48126 45.14558 1.66856 -7.65638 130.23091 -102.54952 9.64727 -2.27013 108.33973 -7.9431 -9.08288 -101.60706 -10.09772 -1.70821 -1.63358 111.57952 6.30657 0.05458 -102.85674 -12.59427 1.79549 1.79828
0.26691 -0.16043 -0.02158 -175.32016 -30.88753 -2.45722 41.03769 1.22853 -4.50393 4.75744 -1.1591 -0.83066 36.54631 -0.89662 6.33801 129.78264 97.5367 10.92968 0.53975 45.01895 1.94017 -7.54916 130.2573 -102.55223 9.56904 -2.29118 108.29197 -7.94476 -9.09482 -101.52466 -10.10612 -1.70871 -1.63276 111.54941 6.34369 0.1176 -102.79439 -12.61398 1.81632 1.80524
0.26712 -0.16033 -0.02137 -175.33571 -30.87327 -2.52279 40.99796 1.2114 -4.62569 4.664 -1.00988 -0.83066 36.28077 -1.35883 5.91868 129.86238 97.67683 10.9222 0.58109 44.85776 2.15233 -7.45096 130.27995 -102.62596 9.54025 -2.31223 108.24681 -7.93534 -9.10525 -101.46254 -10.11114 -1.71035 -1.63279 111.52125 6.38352 0.14649 -102.74915 -12.62611 1.82682 1.80716
0.26735 -0.1602 -0.02114 -175.35111 -30.87064 -2.59351 40.96916 1.19139 -4.75605 4.57121 -0.85007 -0.83066 36.00474 -1.86658 5.46207 129.94112 97.84187 10.90053 0.63347 44.69446 2.39438 -7.34217 130.30761 -102.7023 9.49967 -2.3358 108.209 -7.92371 -9.114 -101.39165 -10.11642 -1.71236 -1.63291 111.50903 6.42219 0.19657 -102.70047 -12.64672 1.8442 1.81309
